<?xml version="1.0" ?><svg width="128px" height="128px" viewBox="0 0 128 128" data-name="Layer 4" id="Layer_4" xmlns="http://www.w3.org/2000/svg"><defs><style>.cls-1{fill:#231f20;}</style></defs><path class="cls-1" d="M48.7,35.64V79.3H92.36C91.93,92.49,82.15,102,68.8,102H49.61C36,102,26,92.05,26,78.39V59.2c0-13.35,9.48-23.13,22.67-23.56m10-10H49.61C30.42,25.63,16,40,16,59.2V78.39C16,97.58,30.42,112,49.61,112H68.8c19.18,0,33.57-14.39,33.57-33.58V69.3H58.7V25.63Z"/><path class="cls-1" d="M78.4,26C92.05,26,102,35.94,102,49.6v.1H78.3V26h.1m0-10H68.3V59.7H112V49.6C112,30.42,97.58,16,78.4,16Z"/></svg>